<?xml version="1.0" encoding="UTF-8" standalone="no"?>
<svg
   xmlns:dc="http://purl.org/dc/elements/1.1/"
   xmlns:cc="http://creativecommons.org/ns#"
   xmlns:rdf="http://www.w3.org/1999/02/22-rdf-syntax-ns#"
   xmlns:svg="http://www.w3.org/2000/svg"
   xmlns="http://www.w3.org/2000/svg"
   xmlns:sodipodi="http://sodipodi.sourceforge.net/DTD/sodipodi-0.dtd"
   xmlns:inkscape="http://www.inkscape.org/namespaces/inkscape"
   inkscape:version="1.0 (4035a4fb49, 2020-05-01)"
   sodipodi:docname="Gamepedia_light.svg"
   viewBox="0 0 809.52399 204.23199"
   height="204.23199"
   width="809.52399"
   xml:space="preserve"
   id="svg27"
   version="1.1"><metadata
     id="metadata33"><rdf:RDF><cc:Work
         rdf:about=""><dc:format>image/svg+xml</dc:format><dc:type
           rdf:resource="http://purl.org/dc/dcmitype/StillImage" /><dc:title></dc:title></cc:Work></rdf:RDF></metadata><defs
     id="defs31"><clipPath
       id="clipPath43"
       clipPathUnits="userSpaceOnUse"><path
         id="path41"
         d="M 0,153.174 H 607.143 V 0 H 0 Z" /></clipPath></defs><sodipodi:namedview
     inkscape:current-layer="g35"
     inkscape:window-maximized="1"
     inkscape:window-y="-8"
     inkscape:window-x="-8"
     inkscape:cy="102.116"
     inkscape:cx="404.76199"
     inkscape:zoom="1.3821676"
     showgrid="false"
     id="namedview29"
     inkscape:window-height="705"
     inkscape:window-width="1366"
     inkscape:pageshadow="2"
     inkscape:pageopacity="0"
     guidetolerance="10"
     gridtolerance="10"
     objecttolerance="10"
     borderopacity="1"
     bordercolor="#666666"
     pagecolor="#ffffff" /><g
     transform="matrix(1.3333333,0,0,-1.3333333,0,204.232)"
     inkscape:label="Gamepedia_light"
     inkscape:groupmode="layer"
     id="g35"><g
       id="g37"><g
         clip-path="url(#clipPath43)"
         id="g39"><g
           transform="translate(187.2578,50.2539)"
           id="g45"><path
             id="path47"
             style="fill:#232323;fill-opacity:1;fill-rule:nonzero;stroke:none"
             d="m 0,0 c 0,-0.77 -0.16,-1.477 -0.479,-2.114 v -0.097 c -0.322,-0.899 -0.93,-1.668 -1.827,-2.307 -6.407,-4.997 -13.68,-7.495 -21.815,-7.495 -9.803,0 -18.164,3.346 -25.083,10.042 -6.92,6.695 -10.379,14.848 -10.379,24.458 0,9.611 3.459,17.795 10.379,24.555 6.919,6.758 15.28,10.139 25.083,10.139 8.265,0 15.568,-2.499 21.911,-7.496 1.217,-0.898 1.923,-2.115 2.116,-3.652 0.192,-1.538 -0.161,-2.9 -1.059,-4.085 -0.897,-1.185 -2.114,-1.874 -3.651,-2.066 -1.538,-0.192 -2.917,0.192 -4.133,1.153 -4.485,3.46 -9.819,5.191 -16.002,5.191 -6.183,0 -11.676,-2.307 -16.48,-6.92 -4.805,-4.614 -7.208,-10.187 -7.208,-16.723 0,-6.535 2.418,-12.108 7.256,-16.722 4.836,-4.612 10.586,-6.919 17.25,-6.919 4.548,0 8.937,1.217 13.166,3.652 V 15.76 h -13.742 c -1.475,0 -2.756,0.546 -3.844,1.633 -1.091,1.09 -1.635,2.385 -1.635,3.893 0,1.505 0.53,2.771 1.586,3.797 1.057,1.023 2.355,1.538 3.893,1.538 h 19.124 c 1.537,0 2.85,-0.515 3.94,-1.538 C -0.544,24.057 0,22.776 0,21.239 Z" /></g><g
           transform="translate(212.3408,64.6679)"
           id="g49"><path
             id="path51"
             style="fill:#232323;fill-opacity:1;fill-rule:nonzero;stroke:none"
             d="M 0,0 H 15.569 L 7.785,20.663 Z m 24.219,-23.063 -4.71,12.493 H -3.843 l -4.71,-12.493 c -0.897,-2.245 -2.45,-3.364 -4.66,-3.364 -2.211,0 -3.796,0.784 -4.759,2.355 -0.96,1.568 -1.153,3.184 -0.575,4.852 L 2.691,37.385 c 0.448,1.024 1.137,1.857 2.066,2.498 0.929,0.64 1.937,0.929 3.028,0.866 2.433,0.127 4.133,-0.994 5.093,-3.364 L 34.117,-19.22 c 0.577,-1.668 0.385,-3.284 -0.577,-4.852 -0.961,-1.571 -2.546,-2.355 -4.756,-2.355 -2.212,0 -3.733,1.119 -4.565,3.364" /></g><g
           transform="translate(279.8062,62.5537)"
           id="g53"><path
             id="path55"
             style="fill:#232323;fill-opacity:1;fill-rule:nonzero;stroke:none"
             d="m 0,0 h -0.193 c -1.858,0 -3.331,0.736 -4.42,2.211 l -13.742,19.221 v -40.459 c 0,-1.476 -0.529,-2.725 -1.587,-3.748 -1.057,-1.027 -2.323,-1.537 -3.795,-1.537 -1.476,0 -2.725,0.51 -3.749,1.537 -1.025,1.023 -1.537,2.272 -1.537,3.748 v 56.701 c 0,1.473 0.512,2.722 1.537,3.747 1.024,1.024 2.273,1.539 3.749,1.539 h 0.288 c 1.857,0 3.266,-0.739 4.228,-2.211 L -0.096,14.225 19.028,40.749 c 1.089,1.472 2.532,2.211 4.325,2.211 h 0.096 c 1.473,-0.066 2.738,-0.611 3.797,-1.635 1.055,-1.025 1.584,-2.243 1.584,-3.651 v -56.701 c 0,-1.41 -0.529,-2.643 -1.584,-3.7 -1.059,-1.057 -2.324,-1.585 -3.797,-1.585 -1.474,0 -2.725,0.51 -3.748,1.537 -1.026,1.023 -1.538,2.272 -1.538,3.748 V 21.432 L 4.324,2.211 C 3.235,0.736 1.793,0 0,0" /></g><g
           transform="translate(323.1055,38.2412)"
           id="g57"><path
             id="path59"
             style="fill:#232323;fill-opacity:1;fill-rule:nonzero;stroke:none"
             d="M 0,0 C -1.476,0 -2.722,0.511 -3.746,1.537 -4.773,2.561 -5.285,3.81 -5.285,5.285 v 56.701 c 0,1.474 0.512,2.722 1.539,3.748 1.024,1.024 2.27,1.538 3.746,1.538 h 31.426 c 1.409,0 2.646,-0.514 3.704,-1.538 1.053,-1.026 1.583,-2.274 1.583,-3.748 0,-1.475 -0.53,-2.739 -1.583,-3.796 -1.058,-1.057 -2.295,-1.585 -3.704,-1.585 H 5.384 V 39.017 h 22.394 c 1.406,0 2.641,-0.528 3.697,-1.586 1.056,-1.056 1.583,-2.306 1.583,-3.747 0,-1.443 -0.509,-2.693 -1.536,-3.749 -1.023,-1.057 -2.274,-1.586 -3.744,-1.586 H 5.384 V 10.667 h 26.042 c 1.409,0 2.646,-0.528 3.704,-1.586 1.053,-1.057 1.583,-2.307 1.583,-3.748 0,-1.441 -0.53,-2.69 -1.583,-3.747 C 34.072,0.528 32.835,0 31.426,0 H 0.292 L 0.1,0.096 Z" /></g><g
           transform="translate(378.0088,94.8457)"
           id="g61"><path
             id="path63"
             style="fill:#f58120;fill-opacity:1;fill-rule:nonzero;stroke:none"
             d="m 0,0 v -19.797 h 11.816 c 2.757,0 5.097,0.961 7.02,2.883 1.918,1.922 2.913,4.228 2.979,6.919 -0.066,2.819 -1.061,5.189 -2.979,7.111 C 16.913,-0.962 14.573,0 11.816,0 Z m 26.424,4.613 c 4.038,-4.037 6.057,-8.89 6.057,-14.56 0,-5.671 -2.019,-10.508 -6.057,-14.513 -4.033,-4.003 -8.901,-6.006 -14.608,-6.006 H 0 v -20.853 c 0,-1.476 -0.53,-2.725 -1.587,-3.748 -1.058,-1.027 -2.322,-1.538 -3.798,-1.538 -1.474,0 -2.725,0.511 -3.744,1.538 -1.03,1.023 -1.54,2.272 -1.54,3.748 V 5.382 c 0,1.473 0.51,2.722 1.54,3.747 1.019,1.024 2.27,1.539 3.744,1.539 h 17.201 c 5.707,0 10.575,-2.019 14.608,-6.055" /></g><g
           transform="translate(421.1865,38.2412)"
           id="g65"><path
             id="path67"
             style="fill:#f58120;fill-opacity:1;fill-rule:nonzero;stroke:none"
             d="M 0,0 C -1.475,0 -2.726,0.511 -3.751,1.537 -4.774,2.561 -5.287,3.81 -5.287,5.285 v 56.701 c 0,1.474 0.513,2.722 1.536,3.748 1.025,1.024 2.276,1.538 3.751,1.538 h 31.426 c 1.407,0 2.639,-0.514 3.698,-1.538 1.057,-1.026 1.584,-2.274 1.584,-3.748 0,-1.475 -0.527,-2.739 -1.584,-3.796 -1.059,-1.057 -2.291,-1.585 -3.698,-1.585 H 5.382 V 39.017 h 22.389 c 1.409,0 2.642,-0.528 3.705,-1.586 1.053,-1.056 1.584,-2.306 1.584,-3.747 0,-1.443 -0.517,-2.693 -1.539,-3.749 -1.029,-1.057 -2.275,-1.586 -3.75,-1.586 H 5.382 V 10.667 h 26.044 c 1.407,0 2.639,-0.528 3.698,-1.586 1.057,-1.057 1.584,-2.307 1.584,-3.748 0,-1.441 -0.527,-2.69 -1.584,-3.747 C 34.065,0.528 32.833,0 31.426,0 H 0.286 L 0.095,0.096 Z" /></g><g
           transform="translate(474.7139,94.8457)"
           id="g69"><path
             id="path71"
             style="fill:#f58120;fill-opacity:1;fill-rule:nonzero;stroke:none"
             d="m 0,0 v -45.938 h 5.956 c 6.346,0.064 11.741,2.322 16.196,6.775 4.451,4.452 6.679,9.851 6.679,16.195 0,6.341 -2.228,11.755 -6.679,16.24 C 17.697,-2.244 12.302,0 5.956,0 Z M -10.669,-51.319 V 5.382 c 0,1.473 0.513,2.722 1.539,3.747 1.023,1.024 2.273,1.539 3.748,1.539 H 5.956 c 9.292,0 17.205,-3.285 23.74,-9.851 6.532,-6.569 9.802,-14.498 9.802,-23.785 0,-9.291 -3.27,-17.221 -9.802,-23.787 -6.535,-6.568 -14.448,-9.85 -23.74,-9.85 H -5.382 c -1.475,0 -2.725,0.511 -3.748,1.538 -1.026,1.023 -1.539,2.272 -1.539,3.748" /></g><g
           transform="translate(521.6113,100.2275)"
           id="g73"><path
             id="path75"
             style="fill:#f58120;fill-opacity:1;fill-rule:nonzero;stroke:none"
             d="M 0,0 C 0,1.473 0.513,2.722 1.538,3.748 2.563,4.771 3.814,5.286 5.285,5.286 6.76,5.286 8.027,4.771 9.081,3.748 10.139,2.722 10.671,1.473 10.671,0 v -56.701 c 0,-1.476 -0.532,-2.725 -1.59,-3.748 -1.054,-1.027 -2.321,-1.537 -3.796,-1.537 -1.471,0 -2.722,0.51 -3.747,1.537 C 0.513,-59.426 0,-58.177 0,-56.701 Z" /></g><g
           transform="translate(556.207,64.6679)"
           id="g77"><path
             id="path79"
             style="fill:#f58120;fill-opacity:1;fill-rule:nonzero;stroke:none"
             d="M 0,0 H 15.571 L 7.786,20.663 Z M 24.221,-23.063 19.51,-10.57 H -3.841 l -4.71,-12.493 c -0.899,-2.245 -2.452,-3.364 -4.661,-3.364 -2.212,0 -3.796,0.784 -4.757,2.355 -0.961,1.568 -1.155,3.184 -0.58,4.852 L 2.69,37.385 c 0.449,1.024 1.138,1.857 2.069,2.498 0.93,0.64 1.938,0.929 3.027,0.866 2.433,0.127 4.13,-0.994 5.093,-3.364 L 34.117,-19.22 c 0.576,-1.668 0.386,-3.284 -0.575,-4.852 -0.961,-1.571 -2.547,-2.355 -4.757,-2.355 -2.212,0 -3.732,1.119 -4.564,3.364" /></g><g
           transform="translate(114.0713,94.8294)"
           id="g81"><path
             id="path83"
             style="fill:#222222;fill-opacity:1;fill-rule:nonzero;stroke:none"
             d="m 0,0 -8.189,-2.024 4.965,16.608 -12.668,-4.195 2.797,18.088 -12.789,-7.03 2.196,17.992 -23.629,-17.541 V 43.98 l -56.218,-56.344 25.354,-57.962 h 9.752 l 9.589,-16.393 0.587,-1.863 0.386,0.198 0.099,-0.167 -0.06,0.186 54.722,28.058 z" /></g><g
           transform="translate(14.1487,81.7868)"
           id="g85"><path
             id="path87"
             style="fill:#f58120;fill-opacity:1;fill-rule:nonzero;stroke:none"
             d="M 0,0 49.568,49.679 V 32.496 L 6.664,0.582 27.119,-54.246 h -3.39 z" /></g><g
           transform="translate(24.7838,81.7868)"
           id="g89"><path
             id="path91"
             style="fill:#ffffff;fill-opacity:1;fill-rule:nonzero;stroke:none"
             d="M 0,0 61.727,45.823 59.972,31.445 16.953,5.491 72.248,35.887 70.026,21.508 25.722,4.439 81.483,22.909 77.743,10.398 14.147,-5.733 Z" /></g><g
           transform="translate(93.5594,37.5756)"
           id="g93"><path
             id="path95"
             style="fill:#f58120;fill-opacity:1;fill-rule:nonzero;stroke:none"
             d="m 0,0 c -2.331,-2.161 -5.221,-2.634 -6.864,-4.219 -1.007,-0.978 -1.55,-2.754 -1.55,-2.754 -1.745,2.634 -3.689,3.421 -5.691,3.585 -2.002,0.158 -5.465,-0.746 -10.847,2.838 -3.672,2.442 -4.483,5.987 -4.614,8.118 -0.01,0.121 -0.014,0.24 -0.019,0.36 -0.007,0.171 -0.011,0.34 -10e-4,0.51 0.006,0.224 0.025,0.616 0.057,0.837 0.013,0.076 0.014,0.119 0.014,0.119 0.003,-0.003 0.003,-0.009 0.003,-0.012 0.323,2.164 1.646,4.318 4.645,6.107 0,0 -1.579,-3.574 1.027,-6.5 1.608,-1.808 4.463,-2.342 6.266,-0.485 0.844,0.87 1.293,2.07 1.43,3.276 0.246,2.28 -0.206,4.637 -2.301,5.887 -3.381,2.01 -4.523,5.597 -2.921,7.971 0,0 1.227,-4.071 3.843,-3.443 1.745,0.418 1.761,2.308 1.125,3.088 -0.686,0.847 -5.907,6.266 -0.378,11.556 0,0 3.143,2.931 7.498,3.677 0.141,0.022 0.282,0.043 0.426,0.063 -2.449,-0.839 -5.07,-2.948 -5.666,-5.493 -0.014,-0.06 -0.024,-0.12 -0.039,-0.18 -0.598,-2.894 0.762,-5.591 2.833,-7.763 1.586,-1.676 3.563,-2.985 4.443,-5.469 -0.932,0.158 -1.755,-0.143 -2.281,-0.931 -0.594,-0.898 -0.691,-2.155 -0.087,-3.073 0.399,-0.605 1.151,-0.961 1.835,-0.97 0.225,0.012 0.459,0.06 0.677,0.151 0.131,0.055 0.251,0.12 0.37,0.201 0.823,0.568 1.305,1.756 0.867,2.68 0.878,-0.389 1.256,-2.139 1.264,-2.959 0.01,-0.975 -0.203,-1.98 -0.631,-2.855 C -5.596,13.256 -5.975,12.47 -6.181,11.751 -6.382,11.05 -6.43,10.314 -6.434,9.587 -6.437,8.818 -6.241,8.019 -5.713,7.461 c 1.593,-1.694 3.727,0.698 4.136,2.297 0.518,2.032 -0.129,4.377 -1.577,5.876 0.002,0 2.498,-0.837 4.775,-4.94 C 3.735,6.898 2.335,2.161 0,0 m -55.563,35.324 19.638,-62.307 50.387,25.834 2.806,54.473 z" /></g></g></g></g></svg>
